<mxfile host="app.diagrams.net" agent="Mozilla/5.0 (Windows NT 10.0; Win64; x64) AppleWebKit/537.36 (KHTML, like Gecko) Chrome/131.0.0.0 Safari/537.36" version="25.0.1" pages="1">
  <diagram name="Page-1" id="_W2CiOrnLOUsiYoZuRJ8">
    <mxGraphModel dx="2442" dy="1236" grid="1" gridSize="10" guides="1" tooltips="1" connect="1" arrows="1" fold="1" page="1" pageScale="1" pageWidth="827" pageHeight="1169" math="0" shadow="0">
      <root>
        <mxfile host="app.diagrams.net" id="0">
          <diagram name="RAG Flowchart" id="flowchart_id">
            <mxGraphModel dx="856" dy="733" grid="1" gridSize="10" guides="1" tooltips="1" connect="1" arrows="1" fold="1" page="1" pageScale="1" pageWidth="827" pageHeight="1169" math="0" shadow="0">
              <root>
                <mxCell id="0" />
                <mxCell id="1" parent="0" />
                <!-- User Input -->
                <mxCell id="2" value="User Input" style="ellipse;whiteSpace=wrap;html=1;" vertex="1" parent="1">
                  <mxGeometry x="120" y="40" width="100" height="50" as="geometry" />
                </mxCell>
                <!-- Azure Function -->
                <mxCell id="3" value="Azure Function: Process Input" style="rectangle;whiteSpace=wrap;html=1;" vertex="1" parent="1">
                  <mxGeometry x="120" y="120" width="180" height="60" as="geometry" />
                </mxCell>
                <mxCell id="4" edge="1" source="2" target="3" parent="1">
                  <mxGeometry relative="1" as="geometry" />
                </mxCell>
                <!-- Cognitive Search -->
                <mxCell id="5" value="Azure Cognitive Search: Query Database" style="rectangle;whiteSpace=wrap;html=1;" vertex="1" parent="1">
                  <mxGeometry x="120" y="220" width="220" height="60" as="geometry" />
                </mxCell>
                <mxCell id="6" edge="1" source="3" target="5" parent="1">
                  <mxGeometry relative="1" as="geometry" />
                </mxCell>
                <!-- Similarity Check -->
                <mxCell id="7" value="Similarity Check" style="diamond;whiteSpace=wrap;html=1;" vertex="1" parent="1">
                  <mxGeometry x="140" y="320" width="100" height="70" as="geometry" />
                </mxCell>
                <mxCell id="8" edge="1" source="5" target="7" parent="1">
                  <mxGeometry relative="1" as="geometry" />
                </mxCell>
                <!-- Similar Match -->
                <mxCell id="9" value="Similar Match Found?" style="rectangle;whiteSpace=wrap;html=1;" vertex="1" parent="1">
                  <mxGeometry x="120" y="420" width="200" height="60" as="geometry" />
                </mxCell>
                <mxCell id="10" edge="1" source="7" target="9" parent="1">
                  <mxGeometry relative="1" as="geometry" />
                </mxCell>
                <!-- Confirm with User -->
                <mxCell id="11" value="Confirm with User" style="rectangle;whiteSpace=wrap;html=1;" vertex="1" parent="1">
                  <mxGeometry x="60" y="520" width="200" height="60" as="geometry" />
                </mxCell>
                <mxCell id="12" edge="1" source="9" target="11" parent="1">
                  <mxGeometry relative="1" as="geometry" />
                </mxCell>
                <!-- Query OpenAI -->
                <mxCell id="13" value="Azure OpenAI: Query Classification" style="rectangle;whiteSpace=wrap;html=1;" vertex="1" parent="1">
                  <mxGeometry x="260" y="520" width="220" height="60" as="geometry" />
                </mxCell>
                <mxCell id="14" edge="1" source="9" target="13" parent="1">
                  <mxGeometry relative="1" as="geometry" />
                </mxCell>
                <!-- Execute or Clarify -->
                <mxCell id="15" value="Execute Action or Clarify" style="rectangle;whiteSpace=wrap;html=1;" vertex="1" parent="1">
                  <mxGeometry x="260" y="620" width="200" height="60" as="geometry" />
                </mxCell>
                <mxCell id="16" edge="1" source="13" target="15" parent="1">
                  <mxGeometry relative="1" as="geometry" />
                </mxCell>
                <!-- Notify Engineers -->
                <mxCell id="17" value="Notify Engineers if Needed" style="rectangle;whiteSpace=wrap;html=1;" vertex="1" parent="1">
                  <mxGeometry x="260" y="720" width="220" height="60" as="geometry" />
                </mxCell>
                <mxCell id="18" edge="1" source="15" target="17" parent="1">
                  <mxGeometry relative="1" as="geometry" />
                </mxCell>
                <!-- Logging -->
                <mxCell id="19" value="Log Interactions (Azure Blob)" style="rectangle;whiteSpace=wrap;html=1;" vertex="1" parent="1">
                  <mxGeometry x="40" y="720" width="200" height="60" as="geometry" />
                </mxCell>
                <mxCell id="20" edge="1" source="15" target="19" parent="1">
                  <mxGeometry relative="1" as="geometry" />
                </mxCell>
              </root>
            </mxGraphModel>
          </diagram>
          <mxCell />
        </mxfile>
      </root>
    </mxGraphModel>
  </diagram>
</mxfile>
